<svg xmlns="http://www.w3.org/2000/svg" viewBox="0 0 512 512"><defs><linearGradient id="pinkG" x1="0" y1="0" x2="0" y2="1"><stop offset="0" stop-color="#FFC2D6"/><stop offset="1" stop-color="#F27AA8"/></linearGradient><linearGradient id="pearlG" x1="0" y1="0" x2="0" y2="1"><stop offset="0" stop-color="#FFFFFF"/><stop offset="0.55" stop-color="#E8E4F5"/><stop offset="1" stop-color="#B8AFD6"/></linearGradient><linearGradient id="goldG" x1="0" y1="0" x2="0" y2="1"><stop offset="0" stop-color="#FFE873"/><stop offset="1" stop-color="#F5A623"/></linearGradient><linearGradient id="limeG" x1="0" y1="0" x2="0" y2="1"><stop offset="0" stop-color="#C8E86A"/><stop offset="1" stop-color="#7AB82A"/></linearGradient><linearGradient id="glassG" x1="0" y1="0" x2="0" y2="1"><stop offset="0" stop-color="#CFEFF8"/><stop offset="1" stop-color="#8FD4EC"/></linearGradient><linearGradient id="boardG" x1="0" y1="0" x2="0" y2="1"><stop offset="0" stop-color="#6FDDF8"/><stop offset="1" stop-color="#1FA9D6"/></linearGradient><linearGradient id="boardO" x1="0" y1="0" x2="0" y2="1"><stop offset="0" stop-color="#FFD24A"/><stop offset="1" stop-color="#FF5F51"/></linearGradient><linearGradient id="woodG" x1="0" y1="0" x2="0" y2="1"><stop offset="0" stop-color="#E0A85C"/><stop offset="1" stop-color="#9C6B34"/></linearGradient><linearGradient id="redG" x1="0" y1="0" x2="0" y2="1"><stop offset="0" stop-color="#FF8E7A"/><stop offset="1" stop-color="#E0392E"/></linearGradient><linearGradient id="leafG" x1="0" y1="0" x2="0" y2="1"><stop offset="0" stop-color="#57C862"/><stop offset="1" stop-color="#2FA05A"/></linearGradient><linearGradient id="grayG" x1="0" y1="0" x2="0" y2="1"><stop offset="0" stop-color="#C8D2DC"/><stop offset="1" stop-color="#6E7A88"/></linearGradient><linearGradient id="cocoG" x1="0" y1="0" x2="0" y2="1"><stop offset="0" stop-color="#A0703A"/><stop offset="1" stop-color="#6E4426"/></linearGradient><radialGradient id="glowY" cx="0.5" cy="0.5" r="0.5"><stop offset="0" stop-color="#FFF3B8" stop-opacity="0.95"/><stop offset="1" stop-color="#FFF3B8" stop-opacity="0"/></radialGradient><linearGradient id="gcoin" x1="0" y1="0" x2="0" y2="1"><stop offset="0" stop-color="#FFE873"/><stop offset="1" stop-color="#F5A623"/></linearGradient></defs><ellipse cx="256" cy="452" rx="95" ry="18" fill="#203040" opacity="0.15"/><g transform="translate(256,252) scale(1.05)"><g transform="translate(0,14)"><path d="M-58 -96 L 58 -96 L 46 96 Q 0 108 -46 96 Z" fill="url(#glassG)" opacity="0.6" stroke="#8FD4EC" stroke-width="7" stroke-linejoin="round"/><path d="M-52 -62 L 52 -62 L 43 90 Q 0 100 -43 90 Z" fill="#FFE49A"/><ellipse cx="0" cy="-62" rx="52" ry="11" fill="#FFF2C8"/><rect x="-34" y="-40" width="34" height="34" rx="8" fill="#FFFFFF" opacity="0.55" transform="rotate(-12 -17 -23)"/><rect x="2" y="8" width="32" height="32" rx="8" fill="#FFFFFF" opacity="0.55" transform="rotate(9 18 24)"/><g transform="translate(52,-84) rotate(18)"><circle cx="0" cy="0" r="34" fill="#A8D84A" stroke="#7AB82A" stroke-width="4.08"/><circle cx="0" cy="0" r="26.52" fill="#EAF8C8"/><path d="M0 0 L-2 -21 A 21 21 0 0 1 17 -12 Z" fill="#C8E86A" transform="rotate(0)"/><path d="M0 0 L-2 -21 A 21 21 0 0 1 17 -12 Z" fill="#C8E86A" transform="rotate(60)"/><path d="M0 0 L-2 -21 A 21 21 0 0 1 17 -12 Z" fill="#C8E86A" transform="rotate(120)"/><path d="M0 0 L-2 -21 A 21 21 0 0 1 17 -12 Z" fill="#C8E86A" transform="rotate(180)"/><path d="M0 0 L-2 -21 A 21 21 0 0 1 17 -12 Z" fill="#C8E86A" transform="rotate(240)"/><path d="M0 0 L-2 -21 A 21 21 0 0 1 17 -12 Z" fill="#C8E86A" transform="rotate(300)"/></g><path d="M-22 -100 L-45 -147" stroke="#FF6B8A" stroke-width="11" stroke-linecap="round"/><path d="M-45 -147 L-34 -170" stroke="#FF6B8A" stroke-width="11" stroke-linecap="round"/><path d="M-38 -34 C -42 10 -40 54 -34 80" fill="none" stroke="#FFFFFF" stroke-width="8" opacity="0.6" stroke-linecap="round"/></g></g></svg>