<svg xmlns="http://www.w3.org/2000/svg" viewBox="0 0 420 560"><defs><linearGradient id="bgreen" x1="0" y1="0" x2="0" y2="1"><stop offset="0" stop-color="#8BE05A"/><stop offset="0.5" stop-color="#5BC838"/><stop offset="1" stop-color="#3FA824"/></linearGradient><linearGradient id="borange" x1="0" y1="0" x2="0" y2="1"><stop offset="0" stop-color="#FFD24A"/><stop offset="0.5" stop-color="#FFA42E"/><stop offset="1" stop-color="#F57E12"/></linearGradient><linearGradient id="bblue" x1="0" y1="0" x2="0" y2="1"><stop offset="0" stop-color="#6FDDF8"/><stop offset="0.5" stop-color="#33B9E8"/><stop offset="1" stop-color="#1690C4"/></linearGradient><linearGradient id="bred" x1="0" y1="0" x2="0" y2="1"><stop offset="0" stop-color="#FF8E7A"/><stop offset="0.5" stop-color="#FF5F51"/><stop offset="1" stop-color="#E0392E"/></linearGradient><linearGradient id="bgray" x1="0" y1="0" x2="0" y2="1"><stop offset="0" stop-color="#C8D2DC"/><stop offset="0.5" stop-color="#9AA8B8"/><stop offset="1" stop-color="#6E7A88"/></linearGradient><linearGradient id="bgold" x1="0" y1="0" x2="0" y2="1"><stop offset="0" stop-color="#FFE873"/><stop offset="0.5" stop-color="#FFD24A"/><stop offset="1" stop-color="#F5A623"/></linearGradient><linearGradient id="gcoin" x1="0" y1="0" x2="0" y2="1"><stop offset="0" stop-color="#FFE873"/><stop offset="1" stop-color="#F5A623"/></linearGradient><linearGradient id="panelG" x1="0" y1="0" x2="0" y2="1"><stop offset="0" stop-color="#FFF9E8"/><stop offset="1" stop-color="#FFEEC2"/></linearGradient><linearGradient id="woodG" x1="0" y1="0" x2="0" y2="1"><stop offset="0" stop-color="#F5B963"/><stop offset="1" stop-color="#C98F4A"/></linearGradient><linearGradient id="pillG" x1="0" y1="0" x2="0" y2="1"><stop offset="0" stop-color="#125E83"/><stop offset="1" stop-color="#0B4A68"/></linearGradient><linearGradient id="goldG" x1="0" y1="0" x2="0" y2="1"><stop offset="0" stop-color="#FFE873"/><stop offset="1" stop-color="#F5A623"/></linearGradient><radialGradient id="glowY" cx="0.5" cy="0.5" r="0.5"><stop offset="0" stop-color="#FFF3B8" stop-opacity="0.95"/><stop offset="1" stop-color="#FFF3B8" stop-opacity="0"/></radialGradient><radialGradient id="hlG" cx="0.5" cy="0.5" r="0.5"><stop offset="0" stop-color="#FFE873" stop-opacity="0.0"/><stop offset="0.7" stop-color="#FFE873" stop-opacity="0.25"/><stop offset="1" stop-color="#FFD24A" stop-opacity="0.85"/></radialGradient></defs><g transform="translate(20,26)"><rect x="-14" y="-14" width="408" height="540" rx="44" fill="url(#hlG)"/><rect x="0" y="10" width="380" height="500" rx="34" fill="#C98F4A"/><rect x="0" y="0" width="380" height="500" rx="34" fill="url(#panelG)" stroke="#F5B963" stroke-width="7"/><rect x="53.2" y="50.0" width="273.59999999999997" height="30" rx="15" fill="#F2D592"/><circle cx="190.0" cy="220.0" r="98.8" fill="#FFF3C2" stroke="#D9B36A" stroke-width="6"/><circle cx="190.0" cy="220.0" r="76.0" fill="#FFE0B0"/><rect x="68.39999999999999" y="390.0" width="243.20000000000002" height="62" rx="24" fill="url(#bgreen)" stroke="#FFFFFF" stroke-width="5"/><g transform="translate(350,30)"><rect x="-70" y="-26" width="140" height="52" rx="20" fill="url(#bred)" stroke="#FFFFFF" stroke-width="5" transform="rotate(12)"/></g></g></svg>