<svg xmlns="http://www.w3.org/2000/svg" viewBox="0 0 512 512"><defs><linearGradient id="pinkG" x1="0" y1="0" x2="0" y2="1"><stop offset="0" stop-color="#FFC2D6"/><stop offset="1" stop-color="#F27AA8"/></linearGradient><linearGradient id="pearlG" x1="0" y1="0" x2="0" y2="1"><stop offset="0" stop-color="#FFFFFF"/><stop offset="0.55" stop-color="#E8E4F5"/><stop offset="1" stop-color="#B8AFD6"/></linearGradient><linearGradient id="goldG" x1="0" y1="0" x2="0" y2="1"><stop offset="0" stop-color="#FFE873"/><stop offset="1" stop-color="#F5A623"/></linearGradient><linearGradient id="limeG" x1="0" y1="0" x2="0" y2="1"><stop offset="0" stop-color="#C8E86A"/><stop offset="1" stop-color="#7AB82A"/></linearGradient><linearGradient id="glassG" x1="0" y1="0" x2="0" y2="1"><stop offset="0" stop-color="#CFEFF8"/><stop offset="1" stop-color="#8FD4EC"/></linearGradient><linearGradient id="boardG" x1="0" y1="0" x2="0" y2="1"><stop offset="0" stop-color="#6FDDF8"/><stop offset="1" stop-color="#1FA9D6"/></linearGradient><linearGradient id="boardO" x1="0" y1="0" x2="0" y2="1"><stop offset="0" stop-color="#FFD24A"/><stop offset="1" stop-color="#FF5F51"/></linearGradient><linearGradient id="woodG" x1="0" y1="0" x2="0" y2="1"><stop offset="0" stop-color="#E0A85C"/><stop offset="1" stop-color="#9C6B34"/></linearGradient><linearGradient id="redG" x1="0" y1="0" x2="0" y2="1"><stop offset="0" stop-color="#FF8E7A"/><stop offset="1" stop-color="#E0392E"/></linearGradient><linearGradient id="leafG" x1="0" y1="0" x2="0" y2="1"><stop offset="0" stop-color="#57C862"/><stop offset="1" stop-color="#2FA05A"/></linearGradient><linearGradient id="grayG" x1="0" y1="0" x2="0" y2="1"><stop offset="0" stop-color="#C8D2DC"/><stop offset="1" stop-color="#6E7A88"/></linearGradient><linearGradient id="cocoG" x1="0" y1="0" x2="0" y2="1"><stop offset="0" stop-color="#A0703A"/><stop offset="1" stop-color="#6E4426"/></linearGradient><radialGradient id="glowY" cx="0.5" cy="0.5" r="0.5"><stop offset="0" stop-color="#FFF3B8" stop-opacity="0.95"/><stop offset="1" stop-color="#FFF3B8" stop-opacity="0"/></radialGradient><linearGradient id="gcoin" x1="0" y1="0" x2="0" y2="1"><stop offset="0" stop-color="#FFE873"/><stop offset="1" stop-color="#F5A623"/></linearGradient></defs><circle cx="256" cy="240" r="195" fill="url(#glowY)"/><ellipse cx="256" cy="458" rx="150" ry="18" fill="#203040" opacity="0.15"/><g transform="translate(256,262)"><ellipse cx="0" cy="158" rx="190" ry="46" fill="#F2D592" stroke="#D9B36A" stroke-width="6"/><g transform="translate(0,-20)"><rect x="-150" y="-80" width="300" height="210" rx="22" fill="url(#woodG)" stroke="#7A5226" stroke-width="9"/><path d="M-150 -10 L 150 -10 M-150 60 L 150 60 M-75 -80 L -75 130 M75 -80 L 75 130" stroke="#7A5226" stroke-width="6" fill="none" opacity="0.6"/><rect x="-160" y="-96" width="320" height="30" rx="14" fill="#E0A85C" stroke="#7A5226" stroke-width="8"/><path d="M-140 -96 C -160 -130 -140 -158 -108 -158 L 108 -158 C 140 -158 160 -130 140 -96 Z" fill="#C98F4A" stroke="#7A5226" stroke-width="8"/><path d="M-96 -128 q 96 -14 192 0" fill="none" stroke="#E0A85C" stroke-width="7" opacity="0.8"/><path d="M-170 90 C -190 100 -200 116 -198 132 C -178 128 -162 116 -152 100 Z" fill="#3FAF4E" stroke="#2FA05A" stroke-width="5"/><path d="M164 100 C 184 108 192 124 190 140 C 172 136 158 124 148 108 Z" fill="#3FAF4E" stroke="#2FA05A" stroke-width="5"/></g><g transform="translate(-120,140) rotate(-18) scale(0.5)"><path d="M0 72 C -62 56 -80 -10 -54 -46 C -40 -64 -16 -74 0 -74 C 16 -74 40 -64 54 -46 C 80 -10 62 56 0 72 Z" fill="url(#pinkG)" stroke="#D6538A" stroke-width="8"/><path d="M0 62 L 0 -68 M-26 54 C -34 18 -37 -22 -40 -40 M26 54 C 34 18 37 -22 40 -40" fill="none" stroke="#D6538A" stroke-width="7" stroke-linecap="round"/><ellipse cx="-20" cy="-46" rx="16" ry="10" fill="#FFFFFF" opacity="0.55" transform="rotate(-24 -20 -46)"/></g><path d="M125.4 124.6 L128.1 142.7 L145.9 147.3 L129.5 155.5 L130.6 173.8 L117.7 160.7 L100.7 167.4 L109.1 151.1 L97.5 137.0 L115.6 140.0 Z" fill="#FF8A5C" stroke="#E56B3E" stroke-width="5" stroke-linejoin="round"/></g><circle cx="256" cy="262" r="205" fill="none" stroke="url(#goldG)" stroke-width="12" opacity="0.9"/><g transform="translate(400,392)"><circle cx="0" cy="8" r="52" fill="#B87310"/><circle cx="0" cy="0" r="52" fill="url(#goldG)" stroke="#FFFFFF" stroke-width="6"/><path d="M0.0 -30.0 L7.9 -8.9 L30.4 -7.9 L12.8 6.2 L18.8 27.9 L0.0 15.4 L-18.8 27.9 L-12.8 6.2 L-30.4 -7.9 L-7.9 -8.9 Z" fill="#FFFFFF"/></g><path d="M110 82 L115.04 94.96 L128 100 L115.04 105.04 L110 118 L104.96 105.04 L92 100 L104.96 94.96 Z" fill="#FFF6C9"/><path d="M410 116 L413.92 126.08 L424 130 L413.92 133.92 L410 144 L406.08 133.92 L396 130 L406.08 126.08 Z" fill="#FFF6C9"/></svg>