<svg xmlns="http://www.w3.org/2000/svg" viewBox="0 0 512 512"><defs><linearGradient id="pinkG" x1="0" y1="0" x2="0" y2="1"><stop offset="0" stop-color="#FFC2D6"/><stop offset="1" stop-color="#F27AA8"/></linearGradient><linearGradient id="pearlG" x1="0" y1="0" x2="0" y2="1"><stop offset="0" stop-color="#FFFFFF"/><stop offset="0.55" stop-color="#E8E4F5"/><stop offset="1" stop-color="#B8AFD6"/></linearGradient><linearGradient id="goldG" x1="0" y1="0" x2="0" y2="1"><stop offset="0" stop-color="#FFE873"/><stop offset="1" stop-color="#F5A623"/></linearGradient><linearGradient id="limeG" x1="0" y1="0" x2="0" y2="1"><stop offset="0" stop-color="#C8E86A"/><stop offset="1" stop-color="#7AB82A"/></linearGradient><linearGradient id="glassG" x1="0" y1="0" x2="0" y2="1"><stop offset="0" stop-color="#CFEFF8"/><stop offset="1" stop-color="#8FD4EC"/></linearGradient><linearGradient id="boardG" x1="0" y1="0" x2="0" y2="1"><stop offset="0" stop-color="#6FDDF8"/><stop offset="1" stop-color="#1FA9D6"/></linearGradient><linearGradient id="boardO" x1="0" y1="0" x2="0" y2="1"><stop offset="0" stop-color="#FFD24A"/><stop offset="1" stop-color="#FF5F51"/></linearGradient><linearGradient id="woodG" x1="0" y1="0" x2="0" y2="1"><stop offset="0" stop-color="#E0A85C"/><stop offset="1" stop-color="#9C6B34"/></linearGradient><linearGradient id="redG" x1="0" y1="0" x2="0" y2="1"><stop offset="0" stop-color="#FF8E7A"/><stop offset="1" stop-color="#E0392E"/></linearGradient><linearGradient id="leafG" x1="0" y1="0" x2="0" y2="1"><stop offset="0" stop-color="#57C862"/><stop offset="1" stop-color="#2FA05A"/></linearGradient><linearGradient id="grayG" x1="0" y1="0" x2="0" y2="1"><stop offset="0" stop-color="#C8D2DC"/><stop offset="1" stop-color="#6E7A88"/></linearGradient><linearGradient id="cocoG" x1="0" y1="0" x2="0" y2="1"><stop offset="0" stop-color="#A0703A"/><stop offset="1" stop-color="#6E4426"/></linearGradient><radialGradient id="glowY" cx="0.5" cy="0.5" r="0.5"><stop offset="0" stop-color="#FFF3B8" stop-opacity="0.95"/><stop offset="1" stop-color="#FFF3B8" stop-opacity="0"/></radialGradient><linearGradient id="gcoin" x1="0" y1="0" x2="0" y2="1"><stop offset="0" stop-color="#FFE873"/><stop offset="1" stop-color="#F5A623"/></linearGradient></defs><circle cx="256" cy="240" r="190" fill="url(#glowY)"/><ellipse cx="256" cy="458" rx="150" ry="18" fill="#203040" opacity="0.15"/><g transform="translate(256,262)"><rect x="-120" y="-180" width="240" height="360" rx="24" fill="url(#boardG)" stroke="#1177A0" stroke-width="9"/><rect x="-96" y="-156" width="192" height="190" rx="16" fill="#BFF0FF" opacity="0.45"/><path d="M-96 -156 L 96 -156 M-96 -110 L 96 -110 M-96 -64 L 96 -64" stroke="#1177A0" stroke-width="5" fill="none" opacity="0.5"/><g transform="translate(-40,-60) rotate(-10) scale(0.62)"><path d="M0 -140 C 42 -62 46 78 10 132 C 5 139 -5 139 -10 132 C -46 78 -42 -62 0 -140 Z" fill="url(#boardO)" stroke="#FFFFFF" stroke-width="9"/><path d="M0 -118 L 0 118" fill="none" stroke="#FFFFFF" stroke-width="11" stroke-linecap="round"/><path d="M-24 -78 C -30 -20 -30 50 -22 96" fill="none" stroke="#FFFFFF" stroke-width="6" opacity="0.5" stroke-linecap="round"/></g><g transform="translate(48,-56) rotate(8) scale(0.62)"><path d="M0 -140 C 42 -62 46 78 10 132 C 5 139 -5 139 -10 132 C -46 78 -42 -62 0 -140 Z" fill="#F2EFE4" stroke="#FFFFFF" stroke-width="9"/><path d="M-24 -78 C -30 -20 -30 50 -22 96" fill="none" stroke="#FFFFFF" stroke-width="6" opacity="0.5" stroke-linecap="round"/></g><rect x="-96" y="58" width="192" height="96" rx="14" fill="#0F86B6"/><path d="M-96 90 L 96 90 M-96 122 L 96 122" stroke="#0B6A94" stroke-width="6" fill="none"/><circle cx="78" cy="106" r="13" fill="#FFD24A" stroke="#E8A81F" stroke-width="5"/><g transform="translate(-64,106)"><ellipse cx="0" cy="-13.64" rx="9.24" ry="13.64" fill="#FFFFFF" stroke="#E84A6F" stroke-width="1.76" transform="rotate(0)"/><ellipse cx="0" cy="-13.64" rx="9.24" ry="13.64" fill="#FFFFFF" stroke="#E84A6F" stroke-width="1.76" transform="rotate(72)"/><ellipse cx="0" cy="-13.64" rx="9.24" ry="13.64" fill="#FFFFFF" stroke="#E84A6F" stroke-width="1.76" transform="rotate(144)"/><ellipse cx="0" cy="-13.64" rx="9.24" ry="13.64" fill="#FFFFFF" stroke="#E84A6F" stroke-width="1.76" transform="rotate(216)"/><ellipse cx="0" cy="-13.64" rx="9.24" ry="13.64" fill="#FFFFFF" stroke="#E84A6F" stroke-width="1.76" transform="rotate(288)"/><circle cx="0" cy="0" r="6.6" fill="#FFD24A" stroke="#E8A81F" stroke-width="1.54"/><path d="M0 0 L 3 -15" stroke="#E8A81F" stroke-width="1.54" stroke-linecap="round"/><circle cx="3.08" cy="-15.399999999999999" r="2.2" fill="#FFD24A"/></g></g><path d="M120 90 L125.6 104.4 L140 110 L125.6 115.6 L120 130 L114.4 115.6 L100 110 L114.4 104.4 Z" fill="#FFF6C9"/><path d="M400 135 L404.2 145.8 L415 150 L404.2 154.2 L400 165 L395.8 154.2 L385 150 L395.8 145.8 Z" fill="#FFF6C9"/><path d="M370 367 L373.64 376.36 L383 380 L373.64 383.64 L370 393 L366.36 383.64 L357 380 L366.36 376.36 Z" fill="#FFF6C9"/></svg>