<svg xmlns="http://www.w3.org/2000/svg" viewBox="0 0 512 512"><defs><linearGradient id="pinkG" x1="0" y1="0" x2="0" y2="1"><stop offset="0" stop-color="#FFC2D6"/><stop offset="1" stop-color="#F27AA8"/></linearGradient><linearGradient id="pearlG" x1="0" y1="0" x2="0" y2="1"><stop offset="0" stop-color="#FFFFFF"/><stop offset="0.55" stop-color="#E8E4F5"/><stop offset="1" stop-color="#B8AFD6"/></linearGradient><linearGradient id="goldG" x1="0" y1="0" x2="0" y2="1"><stop offset="0" stop-color="#FFE873"/><stop offset="1" stop-color="#F5A623"/></linearGradient><linearGradient id="limeG" x1="0" y1="0" x2="0" y2="1"><stop offset="0" stop-color="#C8E86A"/><stop offset="1" stop-color="#7AB82A"/></linearGradient><linearGradient id="glassG" x1="0" y1="0" x2="0" y2="1"><stop offset="0" stop-color="#CFEFF8"/><stop offset="1" stop-color="#8FD4EC"/></linearGradient><linearGradient id="boardG" x1="0" y1="0" x2="0" y2="1"><stop offset="0" stop-color="#6FDDF8"/><stop offset="1" stop-color="#1FA9D6"/></linearGradient><linearGradient id="boardO" x1="0" y1="0" x2="0" y2="1"><stop offset="0" stop-color="#FFD24A"/><stop offset="1" stop-color="#FF5F51"/></linearGradient><linearGradient id="woodG" x1="0" y1="0" x2="0" y2="1"><stop offset="0" stop-color="#E0A85C"/><stop offset="1" stop-color="#9C6B34"/></linearGradient><linearGradient id="redG" x1="0" y1="0" x2="0" y2="1"><stop offset="0" stop-color="#FF8E7A"/><stop offset="1" stop-color="#E0392E"/></linearGradient><linearGradient id="leafG" x1="0" y1="0" x2="0" y2="1"><stop offset="0" stop-color="#57C862"/><stop offset="1" stop-color="#2FA05A"/></linearGradient><linearGradient id="grayG" x1="0" y1="0" x2="0" y2="1"><stop offset="0" stop-color="#C8D2DC"/><stop offset="1" stop-color="#6E7A88"/></linearGradient><linearGradient id="cocoG" x1="0" y1="0" x2="0" y2="1"><stop offset="0" stop-color="#A0703A"/><stop offset="1" stop-color="#6E4426"/></linearGradient><radialGradient id="glowY" cx="0.5" cy="0.5" r="0.5"><stop offset="0" stop-color="#FFF3B8" stop-opacity="0.95"/><stop offset="1" stop-color="#FFF3B8" stop-opacity="0"/></radialGradient><linearGradient id="gcoin" x1="0" y1="0" x2="0" y2="1"><stop offset="0" stop-color="#FFE873"/><stop offset="1" stop-color="#F5A623"/></linearGradient></defs><circle cx="256" cy="240" r="195" fill="url(#glowY)"/><ellipse cx="256" cy="458" rx="150" ry="18" fill="#203040" opacity="0.15"/><g transform="translate(256,262)"><g transform="translate(0,20)"><path d="M-150 -30 L 150 -30 L 122 120 Q 0 142 -122 120 Z" fill="url(#woodG)" stroke="#7A5226" stroke-width="9" stroke-linejoin="round"/><path d="M-138 6 Q 0 28 138 6 M-128 52 Q 0 72 128 52 M-122 96 Q 0 114 122 96" stroke="#7A5226" stroke-width="6" fill="none" opacity="0.55"/><path d="M-96 -30 L -104 6 M-48 -30 L -52 14 M0 -30 L 0 18 M48 -30 L 52 14 M96 -30 L 104 6" stroke="#7A5226" stroke-width="5" fill="none" opacity="0.45"/><rect x="-160" y="-52" width="320" height="30" rx="15" fill="#E0A85C" stroke="#7A5226" stroke-width="8"/><path d="M-60 -52 C -60 -96 -28 -118 0 -118 C 28 -118 60 -96 60 -52" fill="none" stroke="#9C6B34" stroke-width="13" stroke-linecap="round"/><g transform="translate(-92,-78)"><ellipse cx="0" cy="-17.36" rx="11.76" ry="17.36" fill="#FF6B8A" stroke="#E84A6F" stroke-width="2.24" transform="rotate(0)"/><ellipse cx="0" cy="-17.36" rx="11.76" ry="17.36" fill="#FF6B8A" stroke="#E84A6F" stroke-width="2.24" transform="rotate(72)"/><ellipse cx="0" cy="-17.36" rx="11.76" ry="17.36" fill="#FF6B8A" stroke="#E84A6F" stroke-width="2.24" transform="rotate(144)"/><ellipse cx="0" cy="-17.36" rx="11.76" ry="17.36" fill="#FF6B8A" stroke="#E84A6F" stroke-width="2.24" transform="rotate(216)"/><ellipse cx="0" cy="-17.36" rx="11.76" ry="17.36" fill="#FF6B8A" stroke="#E84A6F" stroke-width="2.24" transform="rotate(288)"/><circle cx="0" cy="0" r="8.4" fill="#FFD24A" stroke="#E8A81F" stroke-width="1.9600000000000002"/><path d="M0 0 L 4 -20" stroke="#E8A81F" stroke-width="1.9600000000000002" stroke-linecap="round"/><circle cx="3.9200000000000004" cy="-19.599999999999998" r="2.8000000000000003" fill="#FFD24A"/></g><g transform="translate(94,-74)"><ellipse cx="0" cy="-16.12" rx="10.92" ry="16.12" fill="#FFB13D" stroke="#E84A6F" stroke-width="2.08" transform="rotate(0)"/><ellipse cx="0" cy="-16.12" rx="10.92" ry="16.12" fill="#FFB13D" stroke="#E84A6F" stroke-width="2.08" transform="rotate(72)"/><ellipse cx="0" cy="-16.12" rx="10.92" ry="16.12" fill="#FFB13D" stroke="#E84A6F" stroke-width="2.08" transform="rotate(144)"/><ellipse cx="0" cy="-16.12" rx="10.92" ry="16.12" fill="#FFB13D" stroke="#E84A6F" stroke-width="2.08" transform="rotate(216)"/><ellipse cx="0" cy="-16.12" rx="10.92" ry="16.12" fill="#FFB13D" stroke="#E84A6F" stroke-width="2.08" transform="rotate(288)"/><circle cx="0" cy="0" r="7.8" fill="#FFD24A" stroke="#E8A81F" stroke-width="1.8200000000000003"/><path d="M0 0 L 4 -18" stroke="#E8A81F" stroke-width="1.8200000000000003" stroke-linecap="round"/><circle cx="3.6400000000000006" cy="-18.2" r="2.6" fill="#FFD24A"/></g><path d="M-40 -66 C -54 -84 -78 -88 -96 -80 M42 -64 C 56 -82 80 -84 96 -74" fill="none" stroke="#2FA05A" stroke-width="7" stroke-linecap="round"/><path d="M-16 -70 C -22 -92 -14 -110 0 -120 M16 -68 C 24 -88 40 -98 56 -98" fill="none" stroke="#3FAF4E" stroke-width="8" stroke-linecap="round"/></g></g><circle cx="256" cy="262" r="205" fill="none" stroke="url(#goldG)" stroke-width="12" opacity="0.9"/><g transform="translate(400,392)"><circle cx="0" cy="8" r="52" fill="#B87310"/><circle cx="0" cy="0" r="52" fill="url(#goldG)" stroke="#FFFFFF" stroke-width="6"/><path d="M0.0 -30.0 L7.9 -8.9 L30.4 -7.9 L12.8 6.2 L18.8 27.9 L0.0 15.4 L-18.8 27.9 L-12.8 6.2 L-30.4 -7.9 L-7.9 -8.9 Z" fill="#FFFFFF"/></g><path d="M110 82 L115.04 94.96 L128 100 L115.04 105.04 L110 118 L104.96 105.04 L92 100 L104.96 94.96 Z" fill="#FFF6C9"/><path d="M410 116 L413.92 126.08 L424 130 L413.92 133.92 L410 144 L406.08 133.92 L396 130 L406.08 126.08 Z" fill="#FFF6C9"/></svg>