<svg xmlns="http://www.w3.org/2000/svg" viewBox="0 0 512 512"><defs><linearGradient id="cellG" x1="0" y1="0" x2="0" y2="1"><stop offset="0" stop-color="#FFF9E8"/><stop offset="1" stop-color="#FFEEC2"/></linearGradient><linearGradient id="cellDark" x1="0" y1="0" x2="0" y2="1"><stop offset="0" stop-color="#8A94A2"/><stop offset="1" stop-color="#5A6878"/></linearGradient><linearGradient id="sandG" x1="0" y1="0" x2="0" y2="1"><stop offset="0" stop-color="#FFEBB0"/><stop offset="1" stop-color="#F0C87C"/></linearGradient><linearGradient id="goldG" x1="0" y1="0" x2="0" y2="1"><stop offset="0" stop-color="#FFE873"/><stop offset="1" stop-color="#F5A623"/></linearGradient><linearGradient id="greenG" x1="0" y1="0" x2="0" y2="1"><stop offset="0" stop-color="#8BE05A"/><stop offset="1" stop-color="#3FA824"/></linearGradient><linearGradient id="redG" x1="0" y1="0" x2="0" y2="1"><stop offset="0" stop-color="#FF8E7A"/><stop offset="1" stop-color="#E0392E"/></linearGradient><linearGradient id="woodG" x1="0" y1="0" x2="0" y2="1"><stop offset="0" stop-color="#E0A85C"/><stop offset="1" stop-color="#9C6B34"/></linearGradient><linearGradient id="chestLid" x1="0" y1="0" x2="0" y2="1"><stop offset="0" stop-color="#E0A85C"/><stop offset="1" stop-color="#B47C3C"/></linearGradient><linearGradient id="giftG" x1="0" y1="0" x2="0" y2="1"><stop offset="0" stop-color="#FF8FA8"/><stop offset="1" stop-color="#F2547E"/></linearGradient><linearGradient id="boxG" x1="0" y1="0" x2="0" y2="1"><stop offset="0" stop-color="#8A6FD6"/><stop offset="1" stop-color="#5A3FA8"/></linearGradient><linearGradient id="grayG" x1="0" y1="0" x2="0" y2="1"><stop offset="0" stop-color="#C8D2DC"/><stop offset="1" stop-color="#6E7A88"/></linearGradient><radialGradient id="glowY" cx="0.5" cy="0.5" r="0.5"><stop offset="0" stop-color="#FFF3B8" stop-opacity="0.95"/><stop offset="1" stop-color="#FFF3B8" stop-opacity="0"/></radialGradient><radialGradient id="bubbleG" cx="0.5" cy="0.5" r="0.5"><stop offset="0" stop-color="#FFFFFF" stop-opacity="0.1"/><stop offset="0.8" stop-color="#BFE8F8" stop-opacity="0.35"/><stop offset="1" stop-color="#8FD4EC" stop-opacity="0.6"/></radialGradient><linearGradient id="gcoin" x1="0" y1="0" x2="0" y2="1"><stop offset="0" stop-color="#FFE873"/><stop offset="1" stop-color="#F5A623"/></linearGradient></defs><ellipse cx="256" cy="448" rx="150" ry="18" fill="#203040" opacity="0.15"/><g transform="translate(256,262)"><rect x="-140" y="-140" width="280" height="280" rx="30" fill="url(#boxG)" stroke="#3A2878" stroke-width="10"/><path d="M-140 -70 L 140 -70 M-140 70 L 140 70" stroke="#3A2878" stroke-width="6" fill="none" opacity="0.6"/><circle cx="-112" cy="-112" r="12" fill="#B8A8E8" stroke="#3A2878" stroke-width="4"/><circle cx="112" cy="-112" r="12" fill="#B8A8E8" stroke="#3A2878" stroke-width="4"/><circle cx="-112" cy="112" r="12" fill="#B8A8E8" stroke="#3A2878" stroke-width="4"/><circle cx="112" cy="112" r="12" fill="#B8A8E8" stroke="#3A2878" stroke-width="4"/><path d="M-48 -34 C -48 -74 -22 -94 6 -94 C 40 -94 62 -72 62 -44 C 62 -18 44 -8 28 2 C 16 9 12 16 12 30" fill="none" stroke="#FFF6C9" stroke-width="24" stroke-linecap="round"/><circle cx="12" cy="78" r="17" fill="#FFF6C9"/><path d="M-92 -96 L-87.52 -84.48 L-76 -80 L-87.52 -75.52 L-92 -64 L-96.48 -75.52 L-108 -80 L-96.48 -84.48 Z" fill="#D8CCFF"/><path d="M96 29 L99.64 38.36 L109 42 L99.64 45.64 L96 55 L92.36 45.64 L83 42 L92.36 38.36 Z" fill="#D8CCFF"/></g></svg>