<svg xmlns="http://www.w3.org/2000/svg" viewBox="0 0 512 512"><defs><linearGradient id="cellG" x1="0" y1="0" x2="0" y2="1"><stop offset="0" stop-color="#FFF9E8"/><stop offset="1" stop-color="#FFEEC2"/></linearGradient><linearGradient id="cellDark" x1="0" y1="0" x2="0" y2="1"><stop offset="0" stop-color="#8A94A2"/><stop offset="1" stop-color="#5A6878"/></linearGradient><linearGradient id="sandG" x1="0" y1="0" x2="0" y2="1"><stop offset="0" stop-color="#FFEBB0"/><stop offset="1" stop-color="#F0C87C"/></linearGradient><linearGradient id="goldG" x1="0" y1="0" x2="0" y2="1"><stop offset="0" stop-color="#FFE873"/><stop offset="1" stop-color="#F5A623"/></linearGradient><linearGradient id="greenG" x1="0" y1="0" x2="0" y2="1"><stop offset="0" stop-color="#8BE05A"/><stop offset="1" stop-color="#3FA824"/></linearGradient><linearGradient id="redG" x1="0" y1="0" x2="0" y2="1"><stop offset="0" stop-color="#FF8E7A"/><stop offset="1" stop-color="#E0392E"/></linearGradient><linearGradient id="woodG" x1="0" y1="0" x2="0" y2="1"><stop offset="0" stop-color="#E0A85C"/><stop offset="1" stop-color="#9C6B34"/></linearGradient><linearGradient id="chestLid" x1="0" y1="0" x2="0" y2="1"><stop offset="0" stop-color="#E0A85C"/><stop offset="1" stop-color="#B47C3C"/></linearGradient><linearGradient id="giftG" x1="0" y1="0" x2="0" y2="1"><stop offset="0" stop-color="#FF8FA8"/><stop offset="1" stop-color="#F2547E"/></linearGradient><linearGradient id="boxG" x1="0" y1="0" x2="0" y2="1"><stop offset="0" stop-color="#8A6FD6"/><stop offset="1" stop-color="#5A3FA8"/></linearGradient><linearGradient id="grayG" x1="0" y1="0" x2="0" y2="1"><stop offset="0" stop-color="#C8D2DC"/><stop offset="1" stop-color="#6E7A88"/></linearGradient><radialGradient id="glowY" cx="0.5" cy="0.5" r="0.5"><stop offset="0" stop-color="#FFF3B8" stop-opacity="0.95"/><stop offset="1" stop-color="#FFF3B8" stop-opacity="0"/></radialGradient><radialGradient id="bubbleG" cx="0.5" cy="0.5" r="0.5"><stop offset="0" stop-color="#FFFFFF" stop-opacity="0.1"/><stop offset="0.8" stop-color="#BFE8F8" stop-opacity="0.35"/><stop offset="1" stop-color="#8FD4EC" stop-opacity="0.6"/></radialGradient><linearGradient id="gcoin" x1="0" y1="0" x2="0" y2="1"><stop offset="0" stop-color="#FFE873"/><stop offset="1" stop-color="#F5A623"/></linearGradient></defs><rect x="36" y="44" width="440" height="440" rx="56" fill="#C9A86A" opacity="0.55"/><rect x="36" y="36" width="440" height="440" rx="56" fill="#EAF8DC" stroke="#3FA824" stroke-width="8"/><path d="M76 92 q 180 -28 360 0" fill="none" stroke="#FFFFFF" stroke-width="10" opacity="0.5" stroke-linecap="round"/><rect x="22" y="22" width="468" height="468" rx="64" fill="none" stroke="url(#greenG)" stroke-width="16" opacity="0.9"/><g transform="translate(256,256)"><circle cx="0" cy="6" r="74" fill="#2A7A16" opacity="0.4"/><circle cx="0" cy="0" r="74" fill="url(#greenG)" stroke="#FFFFFF" stroke-width="8"/><path d="M-34 2 L -8 28 L 36 -26" fill="none" stroke="#FFFFFF" stroke-width="20" stroke-linecap="round" stroke-linejoin="round"/></g></svg>