<svg xmlns="http://www.w3.org/2000/svg" viewBox="0 0 512 512"><defs><linearGradient id="cellG" x1="0" y1="0" x2="0" y2="1"><stop offset="0" stop-color="#FFF9E8"/><stop offset="1" stop-color="#FFEEC2"/></linearGradient><linearGradient id="cellDark" x1="0" y1="0" x2="0" y2="1"><stop offset="0" stop-color="#8A94A2"/><stop offset="1" stop-color="#5A6878"/></linearGradient><linearGradient id="sandG" x1="0" y1="0" x2="0" y2="1"><stop offset="0" stop-color="#FFEBB0"/><stop offset="1" stop-color="#F0C87C"/></linearGradient><linearGradient id="goldG" x1="0" y1="0" x2="0" y2="1"><stop offset="0" stop-color="#FFE873"/><stop offset="1" stop-color="#F5A623"/></linearGradient><linearGradient id="greenG" x1="0" y1="0" x2="0" y2="1"><stop offset="0" stop-color="#8BE05A"/><stop offset="1" stop-color="#3FA824"/></linearGradient><linearGradient id="redG" x1="0" y1="0" x2="0" y2="1"><stop offset="0" stop-color="#FF8E7A"/><stop offset="1" stop-color="#E0392E"/></linearGradient><linearGradient id="woodG" x1="0" y1="0" x2="0" y2="1"><stop offset="0" stop-color="#E0A85C"/><stop offset="1" stop-color="#9C6B34"/></linearGradient><linearGradient id="chestLid" x1="0" y1="0" x2="0" y2="1"><stop offset="0" stop-color="#E0A85C"/><stop offset="1" stop-color="#B47C3C"/></linearGradient><linearGradient id="giftG" x1="0" y1="0" x2="0" y2="1"><stop offset="0" stop-color="#FF8FA8"/><stop offset="1" stop-color="#F2547E"/></linearGradient><linearGradient id="boxG" x1="0" y1="0" x2="0" y2="1"><stop offset="0" stop-color="#8A6FD6"/><stop offset="1" stop-color="#5A3FA8"/></linearGradient><linearGradient id="grayG" x1="0" y1="0" x2="0" y2="1"><stop offset="0" stop-color="#C8D2DC"/><stop offset="1" stop-color="#6E7A88"/></linearGradient><radialGradient id="glowY" cx="0.5" cy="0.5" r="0.5"><stop offset="0" stop-color="#FFF3B8" stop-opacity="0.95"/><stop offset="1" stop-color="#FFF3B8" stop-opacity="0"/></radialGradient><radialGradient id="bubbleG" cx="0.5" cy="0.5" r="0.5"><stop offset="0" stop-color="#FFFFFF" stop-opacity="0.1"/><stop offset="0.8" stop-color="#BFE8F8" stop-opacity="0.35"/><stop offset="1" stop-color="#8FD4EC" stop-opacity="0.6"/></radialGradient><linearGradient id="gcoin" x1="0" y1="0" x2="0" y2="1"><stop offset="0" stop-color="#FFE873"/><stop offset="1" stop-color="#F5A623"/></linearGradient></defs><ellipse cx="256" cy="448" rx="130" ry="18" fill="#203040" opacity="0.15"/><g transform="translate(256,248)"><circle cx="0" cy="16.0" r="160" fill="#B87310"/><circle cx="0" cy="0" r="160" fill="url(#gcoin)" stroke="#FFF6C9" stroke-width="20.8"/><circle cx="0" cy="0" r="99.2" fill="none" stroke="#D98A16" stroke-width="25.6"/><path d="M0.0 -67.2 L16.6 -22.8 L63.9 -20.8 L26.8 8.7 L39.5 54.4 L0.0 28.2 L-39.5 54.4 L-26.8 8.7 L-63.9 -20.8 L-16.6 -22.8 Z" fill="#D98A16"/><path d="M-115.19999999999999 -67.2 a 128.0 88.0 0 0 1 176.0 -44.800000000000004" fill="none" stroke="#FFFFFF" stroke-width="22.400000000000002" stroke-linecap="round" opacity="0.55"/></g></svg>