<svg xmlns="http://www.w3.org/2000/svg" viewBox="0 0 1290 2796"><defs><linearGradient id="sky" x1="0" y1="0" x2="0" y2="1"><stop offset="0" stop-color="#6ED4F7"/><stop offset="0.55" stop-color="#BDEFFF"/><stop offset="0.66" stop-color="#E6FAFF"/></linearGradient><linearGradient id="sea" x1="0" y1="0" x2="0" y2="1"><stop offset="0" stop-color="#42D8E4"/><stop offset="1" stop-color="#1194C4"/></linearGradient><linearGradient id="sandG" x1="0" y1="0" x2="0" y2="1"><stop offset="0" stop-color="#FFEBB0"/><stop offset="1" stop-color="#F0C87C"/></linearGradient><linearGradient id="woodG" x1="0" y1="0" x2="0" y2="1"><stop offset="0" stop-color="#E0A85C"/><stop offset="1" stop-color="#9C6B34"/></linearGradient><linearGradient id="roofG" x1="0" y1="0" x2="0" y2="1"><stop offset="0" stop-color="#FF8E7A"/><stop offset="1" stop-color="#E0392E"/></linearGradient><linearGradient id="thatch" x1="0" y1="0" x2="0" y2="1"><stop offset="0" stop-color="#F2D592"/><stop offset="1" stop-color="#C9A86A"/></linearGradient><linearGradient id="goldG" x1="0" y1="0" x2="0" y2="1"><stop offset="0" stop-color="#FFE873"/><stop offset="1" stop-color="#F5A623"/></linearGradient><linearGradient id="boardG" x1="0" y1="0" x2="0" y2="1"><stop offset="0" stop-color="#6FDDF8"/><stop offset="1" stop-color="#1FA9D6"/></linearGradient><linearGradient id="leafG" x1="0" y1="0" x2="0" y2="1"><stop offset="0" stop-color="#57C862"/><stop offset="1" stop-color="#2FA05A"/></linearGradient><radialGradient id="sunGlow" cx="0.5" cy="0.5" r="0.5"><stop offset="0" stop-color="#FFF6C9" stop-opacity="0.9"/><stop offset="1" stop-color="#FFF6C9" stop-opacity="0"/></radialGradient><radialGradient id="glowY" cx="0.5" cy="0.5" r="0.5"><stop offset="0" stop-color="#FFF3B8" stop-opacity="0.95"/><stop offset="1" stop-color="#FFF3B8" stop-opacity="0"/></radialGradient><radialGradient id="stormVig" cx="0.5" cy="0.42" r="0.75"><stop offset="0" stop-color="#3A4A6E" stop-opacity="0"/><stop offset="0.62" stop-color="#3A4A6E" stop-opacity="0.12"/><stop offset="1" stop-color="#2A3A5E" stop-opacity="0.42"/></radialGradient><linearGradient id="logoA" x1="0" y1="0" x2="0" y2="1"><stop offset="0" stop-color="#FFE873"/><stop offset="0.5" stop-color="#FFB833"/><stop offset="1" stop-color="#FF8F1F"/></linearGradient><linearGradient id="logoB" x1="0" y1="0" x2="0" y2="1"><stop offset="0" stop-color="#7FE9F5"/><stop offset="1" stop-color="#1FA9D6"/></linearGradient></defs><rect x="0" y="0" width="1290" height="1733.52" rx="0" fill="url(#sky)"/><g transform="translate(260,300)" opacity="0.95"><ellipse cx="0" cy="0" rx="130" ry="54.6" fill="#FFFFFF"/><ellipse cx="91.0" cy="-26.0" rx="91.0" ry="44.2" fill="#FFFFFF"/></g><g transform="translate(830,200)" opacity="0.85"><ellipse cx="0" cy="0" rx="90" ry="37.8" fill="#FFFFFF"/><ellipse cx="62.99999999999999" cy="-18.0" rx="62.99999999999999" ry="30.6" fill="#FFFFFF"/></g><g transform="translate(330,700)" opacity="0.8"><ellipse cx="0" cy="0" rx="80" ry="33.6" fill="#FFFFFF"/><ellipse cx="56.0" cy="-16.0" rx="56.0" ry="27.200000000000003" fill="#FFFFFF"/></g><path d="M0 1420 Q 322.5 1370 645.0 1420 T 1290 1420 L 1290 1780 L 0 1780 Z" fill="url(#sea)"/><path d="M0 1420 Q 322.5 1370 645.0 1420 T 1290 1420" fill="none" stroke="#FFFFFF" stroke-width="16" stroke-opacity="0.85"/><path d="M140 1530 q 60 -22 120 0 t 120 0" fill="none" stroke="#AFF3FA" stroke-width="11" stroke-linecap="round" opacity="0.8"/><path d="M760 1600 q 60 -22 120 0 t 120 0" fill="none" stroke="#AFF3FA" stroke-width="11" stroke-linecap="round" opacity="0.8"/><path d="M420 1690 q 60 -22 120 0 t 120 0" fill="none" stroke="#AFF3FA" stroke-width="11" stroke-linecap="round" opacity="0.8"/><path d="M0 1810 Q 387.0 1720 799.8 1790 T 1290 1780 L 1290 2796 L 0 2796 Z" fill="url(#sandG)"/><path d="M0 1810 Q 387.0 1720 799.8 1790 T 1290 1780" fill="none" stroke="#FFF6DC" stroke-width="14" stroke-opacity="0.9"/><g transform="translate(340,360)" opacity="0.92"><ellipse cx="0" cy="0" rx="190" ry="95.0" fill="#8A93A8"/><ellipse cx="125.4" cy="-41.8" rx="136.79999999999998" ry="79.8" fill="#8A93A8"/><ellipse cx="-114.0" cy="-19.0" rx="114.0" ry="68.39999999999999" fill="#8A93A8"/></g><g transform="translate(930,250)" opacity="0.9"><ellipse cx="0" cy="0" rx="150" ry="75.0" fill="#9AA2B4"/><ellipse cx="99.0" cy="-33.0" rx="108.0" ry="63.0" fill="#9AA2B4"/><ellipse cx="-90.0" cy="-15.0" rx="90.0" ry="54.0" fill="#9AA2B4"/></g><g transform="translate(650,520)" opacity="0.82"><ellipse cx="0" cy="0" rx="170" ry="85.0" fill="#7E88A0"/><ellipse cx="112.2" cy="-37.4" rx="122.39999999999999" ry="71.39999999999999" fill="#7E88A0"/><ellipse cx="-102.0" cy="-17.0" rx="102.0" ry="61.199999999999996" fill="#7E88A0"/></g><g transform="translate(645,1330) scale(1.35)"><rect x="-330" y="120" width="40" height="260" rx="14" fill="url(#woodG)" stroke="#7A5226" stroke-width="8"/><rect x="290" y="120" width="40" height="260" rx="14" fill="url(#woodG)" stroke="#7A5226" stroke-width="8"/><g transform="rotate(-2)"><rect x="-300" y="150" width="600" height="190" rx="22" fill="url(#woodG)" stroke="#7A5226" stroke-width="10"/></g><path d="M-300 218 L 300 205 M-300 282 L 300 272" stroke="#7A5226" stroke-width="6" fill="none" opacity="0.6" transform="rotate(-2)"/><path d="M-80 150 L 60 150 L 40 240 L -60 235 Z" fill="#6E4426" transform="rotate(-2)"/><g transform="translate(-60,470) rotate(-24)"><rect x="-70" y="-18" width="190" height="36" rx="10" fill="url(#woodG)" stroke="#7A5226" stroke-width="7"/></g><g transform="translate(180,500) rotate(14)"><rect x="-70" y="-16" width="160" height="32" rx="9" fill="url(#woodG)" stroke="#7A5226" stroke-width="7"/></g><rect x="-262" y="-180" width="30" height="330" rx="12" fill="url(#woodG)" stroke="#7A5226" stroke-width="7"/><rect x="232" y="-180" width="30" height="330" rx="12" fill="url(#woodG)" stroke="#7A5226" stroke-width="7"/><g transform="rotate(-4)"><path d="M-370 -170 C -240 -260 240 -260 370 -170 L 330 -120 C 210 -195 -90 -200 -180 -160 L -240 -110 Z" fill="url(#thatch)" stroke="#A0703A" stroke-width="10" stroke-linejoin="round"/></g><path d="M-260 -228 L -284 -150" stroke="#A0703A" stroke-width="7" fill="none" opacity="0.7" stroke-linecap="round" transform="rotate(-4)"/><path d="M-170 -228 L -194 -150" stroke="#A0703A" stroke-width="7" fill="none" opacity="0.7" stroke-linecap="round" transform="rotate(-4)"/><path d="M-80 -228 L -104 -150" stroke="#A0703A" stroke-width="7" fill="none" opacity="0.7" stroke-linecap="round" transform="rotate(-4)"/><path d="M10 -228 L -14 -150" stroke="#A0703A" stroke-width="7" fill="none" opacity="0.7" stroke-linecap="round" transform="rotate(-4)"/><path d="M100 -228 L 76 -150" stroke="#A0703A" stroke-width="7" fill="none" opacity="0.7" stroke-linecap="round" transform="rotate(-4)"/><path d="M190 -228 L 166 -150" stroke="#A0703A" stroke-width="7" fill="none" opacity="0.7" stroke-linecap="round" transform="rotate(-4)"/><path d="M280 -228 L 256 -150" stroke="#A0703A" stroke-width="7" fill="none" opacity="0.7" stroke-linecap="round" transform="rotate(-4)"/><path d="M60 -215 L 150 -132 L 20 -140 Z" fill="#5A7A94" opacity="0.55"/><g transform="translate(30,-30) rotate(-14)"><rect x="-120" y="-40" width="240" height="80" rx="20" fill="url(#woodG)" stroke="#7A5226" stroke-width="8"/><path d="M-90 -40 L -70 -90 M60 -40 L 80 -78" stroke="#7A5226" stroke-width="9" fill="none" stroke-linecap="round"/></g><path d="M-420 480 C -440 450 -436 420 -416 400 C -404 424 -404 456 -420 480 Z" fill="#5FA86A" opacity="0.8"/><g transform="translate(410,470)"><path d="M-40 0 L 40 0 L 30 60 Q 0 70 -30 60 Z" fill="#8FA0B0" stroke="#4A5866" stroke-width="7" stroke-linejoin="round" transform="rotate(24)"/></g></g><g transform="translate(-80,1120) scale(1.15)"><path d="M170 900 C 140 760 150 640 220 540" fill="none" stroke="#9C6B3F" stroke-width="52" stroke-linecap="round"/><path d="M170 900 C 140 760 150 640 220 540" fill="none" stroke="#B98350" stroke-width="30" stroke-linecap="round"/><path d="M220 540 C 130 470 30 470 -30 530 C 70 555 155 565 220 540 Z" fill="#8AA05A"/><path d="M220 540 C 175 435 90 390 5 400 C 80 475 155 520 220 540 Z" fill="#8AA05A"/><path d="M220 540 C 245 420 320 360 420 360 C 370 460 295 520 220 540 Z" fill="#8AA05A"/><path d="M220 540 C 320 465 420 455 495 505 C 395 545 300 560 220 540 Z" fill="#8AA05A"/><path d="M220 540 C 150 480 65 475 0 518 C 85 540 160 550 220 540 Z" fill="#9AB06A"/><path d="M220 540 C 255 440 325 390 405 385 C 360 465 295 515 220 540 Z" fill="#9AB06A"/><circle cx="200" cy="565" r="28" fill="#8A5A33"/><circle cx="248" cy="558" r="26" fill="#9C6B3F"/><path d="M220 540 C 260 570 290 620 300 680" fill="none" stroke="#8AA05A" stroke-width="26" stroke-linecap="round"/></g><g transform="translate(1020,2450)"><path d="M10.2 -40.8 L13.5 -11.3 L41.9 -2.9 L15.0 9.3 L15.7 38.9 L-4.3 17.1 L-32.2 27.0 L-17.6 1.2 L-35.6 -22.3 L-6.6 -16.4 Z" fill="#FF8A5C" stroke="#E56B3E" stroke-width="6" stroke-linejoin="round"/></g><g transform="translate(300,2560) scale(0.55)"><path d="M0 72 C -62 56 -80 -10 -54 -46 C -40 -64 -16 -74 0 -74 C 16 -74 40 -64 54 -46 C 80 -10 62 56 0 72 Z" fill="#F27AA8" stroke="#D6538A" stroke-width="8"/></g><rect x="0" y="0" width="1290" height="2796" rx="0" fill="url(#stormVig)"/><path d="M300 700 l -18 44" stroke="#Bcc8E0" stroke-width="5" stroke-linecap="round" opacity="0.5"/><path d="M420 620 l -18 44" stroke="#Bcc8E0" stroke-width="5" stroke-linecap="round" opacity="0.5"/><path d="M900 560 l -18 44" stroke="#Bcc8E0" stroke-width="5" stroke-linecap="round" opacity="0.5"/><path d="M1040 700 l -18 44" stroke="#Bcc8E0" stroke-width="5" stroke-linecap="round" opacity="0.5"/><path d="M560 900 l -18 44" stroke="#Bcc8E0" stroke-width="5" stroke-linecap="round" opacity="0.5"/><path d="M760 840 l -18 44" stroke="#Bcc8E0" stroke-width="5" stroke-linecap="round" opacity="0.5"/></svg>