<svg xmlns="http://www.w3.org/2000/svg" viewBox="0 0 1290 2796"><defs><linearGradient id="sky" x1="0" y1="0" x2="0" y2="1"><stop offset="0" stop-color="#6ED4F7"/><stop offset="0.55" stop-color="#BDEFFF"/><stop offset="0.66" stop-color="#E6FAFF"/></linearGradient><linearGradient id="sea" x1="0" y1="0" x2="0" y2="1"><stop offset="0" stop-color="#42D8E4"/><stop offset="1" stop-color="#1194C4"/></linearGradient><linearGradient id="sandG" x1="0" y1="0" x2="0" y2="1"><stop offset="0" stop-color="#FFEBB0"/><stop offset="1" stop-color="#F0C87C"/></linearGradient><linearGradient id="woodG" x1="0" y1="0" x2="0" y2="1"><stop offset="0" stop-color="#E0A85C"/><stop offset="1" stop-color="#9C6B34"/></linearGradient><linearGradient id="roofG" x1="0" y1="0" x2="0" y2="1"><stop offset="0" stop-color="#FF8E7A"/><stop offset="1" stop-color="#E0392E"/></linearGradient><linearGradient id="thatch" x1="0" y1="0" x2="0" y2="1"><stop offset="0" stop-color="#F2D592"/><stop offset="1" stop-color="#C9A86A"/></linearGradient><linearGradient id="goldG" x1="0" y1="0" x2="0" y2="1"><stop offset="0" stop-color="#FFE873"/><stop offset="1" stop-color="#F5A623"/></linearGradient><linearGradient id="boardG" x1="0" y1="0" x2="0" y2="1"><stop offset="0" stop-color="#6FDDF8"/><stop offset="1" stop-color="#1FA9D6"/></linearGradient><linearGradient id="leafG" x1="0" y1="0" x2="0" y2="1"><stop offset="0" stop-color="#57C862"/><stop offset="1" stop-color="#2FA05A"/></linearGradient><radialGradient id="sunGlow" cx="0.5" cy="0.5" r="0.5"><stop offset="0" stop-color="#FFF6C9" stop-opacity="0.9"/><stop offset="1" stop-color="#FFF6C9" stop-opacity="0"/></radialGradient><radialGradient id="glowY" cx="0.5" cy="0.5" r="0.5"><stop offset="0" stop-color="#FFF3B8" stop-opacity="0.95"/><stop offset="1" stop-color="#FFF3B8" stop-opacity="0"/></radialGradient><radialGradient id="stormVig" cx="0.5" cy="0.42" r="0.75"><stop offset="0" stop-color="#3A4A6E" stop-opacity="0"/><stop offset="0.62" stop-color="#3A4A6E" stop-opacity="0.12"/><stop offset="1" stop-color="#2A3A5E" stop-opacity="0.42"/></radialGradient><linearGradient id="logoA" x1="0" y1="0" x2="0" y2="1"><stop offset="0" stop-color="#FFE873"/><stop offset="0.5" stop-color="#FFB833"/><stop offset="1" stop-color="#FF8F1F"/></linearGradient><linearGradient id="logoB" x1="0" y1="0" x2="0" y2="1"><stop offset="0" stop-color="#7FE9F5"/><stop offset="1" stop-color="#1FA9D6"/></linearGradient></defs><rect x="0" y="0" width="1290" height="1733.52" rx="0" fill="url(#sky)"/><circle cx="1010" cy="400" r="420" fill="url(#sunGlow)"/><circle cx="1010" cy="400" r="150" fill="#FFDE59"/><circle cx="1010" cy="400" r="150" fill="none" stroke="#FFFFFF" stroke-opacity="0.5" stroke-width="12"/><g transform="translate(260,300)" opacity="0.95"><ellipse cx="0" cy="0" rx="130" ry="54.6" fill="#FFFFFF"/><ellipse cx="91.0" cy="-26.0" rx="91.0" ry="44.2" fill="#FFFFFF"/></g><g transform="translate(830,200)" opacity="0.85"><ellipse cx="0" cy="0" rx="90" ry="37.8" fill="#FFFFFF"/><ellipse cx="62.99999999999999" cy="-18.0" rx="62.99999999999999" ry="30.6" fill="#FFFFFF"/></g><g transform="translate(330,700)" opacity="0.8"><ellipse cx="0" cy="0" rx="80" ry="33.6" fill="#FFFFFF"/><ellipse cx="56.0" cy="-16.0" rx="56.0" ry="27.200000000000003" fill="#FFFFFF"/></g><path d="M0 1420 Q 322.5 1370 645.0 1420 T 1290 1420 L 1290 1780 L 0 1780 Z" fill="url(#sea)"/><path d="M0 1420 Q 322.5 1370 645.0 1420 T 1290 1420" fill="none" stroke="#FFFFFF" stroke-width="16" stroke-opacity="0.85"/><path d="M140 1530 q 60 -22 120 0 t 120 0" fill="none" stroke="#AFF3FA" stroke-width="11" stroke-linecap="round" opacity="0.8"/><path d="M760 1600 q 60 -22 120 0 t 120 0" fill="none" stroke="#AFF3FA" stroke-width="11" stroke-linecap="round" opacity="0.8"/><path d="M420 1690 q 60 -22 120 0 t 120 0" fill="none" stroke="#AFF3FA" stroke-width="11" stroke-linecap="round" opacity="0.8"/><path d="M0 1810 Q 387.0 1720 799.8 1790 T 1290 1780 L 1290 2796 L 0 2796 Z" fill="url(#sandG)"/><path d="M0 1810 Q 387.0 1720 799.8 1790 T 1290 1780" fill="none" stroke="#FFF6DC" stroke-width="14" stroke-opacity="0.9"/><g transform="translate(645,1330) scale(1.35)"><rect x="-330" y="120" width="40" height="260" rx="14" fill="url(#woodG)" stroke="#7A5226" stroke-width="8"/><rect x="290" y="120" width="40" height="260" rx="14" fill="url(#woodG)" stroke="#7A5226" stroke-width="8"/><rect x="-300" y="150" width="600" height="190" rx="22" fill="url(#woodG)" stroke="#7A5226" stroke-width="10"/><path d="M-300 214 L 300 214 M-300 278 L 300 278" stroke="#7A5226" stroke-width="6" fill="none" opacity="0.6"/><path d="M-280 172 q 280 -18 560 0" fill="none" stroke="#FFF6DC" stroke-width="9" opacity="0.7"/><path d="M-260 340 L -260 168" stroke="#E8C87A" stroke-width="13" fill="none" opacity="0.8" stroke-linecap="round"/><path d="M-186 340 L -186 168" stroke="#E8C87A" stroke-width="13" fill="none" opacity="0.8" stroke-linecap="round"/><path d="M-112 340 L -112 168" stroke="#E8C87A" stroke-width="13" fill="none" opacity="0.8" stroke-linecap="round"/><path d="M-38 340 L -38 168" stroke="#E8C87A" stroke-width="13" fill="none" opacity="0.8" stroke-linecap="round"/><path d="M36 340 L 36 168" stroke="#E8C87A" stroke-width="13" fill="none" opacity="0.8" stroke-linecap="round"/><path d="M110 340 L 110 168" stroke="#E8C87A" stroke-width="13" fill="none" opacity="0.8" stroke-linecap="round"/><path d="M184 340 L 184 168" stroke="#E8C87A" stroke-width="13" fill="none" opacity="0.8" stroke-linecap="round"/><path d="M258 340 L 258 168" stroke="#E8C87A" stroke-width="13" fill="none" opacity="0.8" stroke-linecap="round"/><rect x="-262" y="-180" width="30" height="330" rx="12" fill="url(#woodG)" stroke="#7A5226" stroke-width="7"/><rect x="232" y="-180" width="30" height="330" rx="12" fill="url(#woodG)" stroke="#7A5226" stroke-width="7"/><path d="M-380 -160 C -250 -268 250 -268 380 -160 L 330 -84 C 205 -168 -205 -168 -330 -84 Z" fill="url(#roofG)" stroke="#A32218" stroke-width="10" stroke-linejoin="round"/><path d="M-240 -236 C -248 -196 -252 -152 -250 -118" stroke="#FFFFFF" stroke-width="9" fill="none" opacity="0.75" stroke-linecap="round"/><path d="M-132 -236 C -140 -196 -144 -152 -142 -118" stroke="#FFFFFF" stroke-width="9" fill="none" opacity="0.75" stroke-linecap="round"/><path d="M-24 -236 C -32 -196 -36 -152 -34 -118" stroke="#FFFFFF" stroke-width="9" fill="none" opacity="0.75" stroke-linecap="round"/><path d="M84 -236 C 76 -196 72 -152 74 -118" stroke="#FFFFFF" stroke-width="9" fill="none" opacity="0.75" stroke-linecap="round"/><path d="M192 -236 C 184 -196 180 -152 182 -118" stroke="#FFFFFF" stroke-width="9" fill="none" opacity="0.75" stroke-linecap="round"/><path d="M-380 -160 C -250 -268 250 -268 380 -160" fill="none" stroke="#FFFFFF" stroke-width="9" opacity="0.7"/><g transform="translate(0,-52)"><rect x="-140" y="-46" width="280" height="92" rx="24" fill="url(#goldG)" stroke="#D98A16" stroke-width="9"/><path d="M-104 -6 q 20 -26 40 0 t 40 0 t 40 0 t 40 0" fill="none" stroke="#FFFFFF" stroke-width="10" stroke-linecap="round"/><circle cx="-150" cy="-50" r="12" fill="#FF6B8A"/><circle cx="150" cy="-50" r="12" fill="#FF6B8A"/></g><path d="M-262 -60 C -140 20 140 20 262 -60" fill="none" stroke="#7A5226" stroke-width="6"/><circle cx="-210" cy="-32" r="13" fill="#FFD24A" stroke="#FFFFFF" stroke-width="4"/><circle cx="-140" cy="0" r="13" fill="#FF6B8A" stroke="#FFFFFF" stroke-width="4"/><circle cx="-70" cy="16" r="13" fill="#5BD1F0" stroke="#FFFFFF" stroke-width="4"/><circle cx="0" cy="22" r="13" fill="#FFD24A" stroke="#FFFFFF" stroke-width="4"/><circle cx="70" cy="16" r="13" fill="#8BE05A" stroke="#FFFFFF" stroke-width="4"/><circle cx="140" cy="0" r="13" fill="#FF6B8A" stroke="#FFFFFF" stroke-width="4"/><circle cx="210" cy="-32" r="13" fill="#5BD1F0" stroke="#FFFFFF" stroke-width="4"/><g transform="translate(-390,240) rotate(12) scale(0.85)"><path d="M0 -140 C 42 -62 46 78 10 132 C 5 139 -5 139 -10 132 C -46 78 -42 -62 0 -140 Z" fill="url(#boardG)" stroke="#FFFFFF" stroke-width="9"/><path d="M0 -118 L 0 118" fill="none" stroke="#FF6B5C" stroke-width="11" stroke-linecap="round"/></g><g transform="translate(-250,140)"><ellipse cx="0" cy="-22" rx="13" ry="20" fill="#FF6B8A" stroke="#E84A6F" stroke-width="4" transform="rotate(0)"/><ellipse cx="0" cy="-22" rx="13" ry="20" fill="#FF6B8A" stroke="#E84A6F" stroke-width="4" transform="rotate(72)"/><ellipse cx="0" cy="-22" rx="13" ry="20" fill="#FF6B8A" stroke="#E84A6F" stroke-width="4" transform="rotate(144)"/><ellipse cx="0" cy="-22" rx="13" ry="20" fill="#FF6B8A" stroke="#E84A6F" stroke-width="4" transform="rotate(216)"/><ellipse cx="0" cy="-22" rx="13" ry="20" fill="#FF6B8A" stroke="#E84A6F" stroke-width="4" transform="rotate(288)"/><circle cx="0" cy="0" r="11" fill="#FFD24A" stroke="#E8A81F" stroke-width="4"/></g><g transform="translate(250,140)"><ellipse cx="0" cy="-22" rx="13" ry="20" fill="#FFB13D" stroke="#E8891F" stroke-width="4" transform="rotate(0)"/><ellipse cx="0" cy="-22" rx="13" ry="20" fill="#FFB13D" stroke="#E8891F" stroke-width="4" transform="rotate(72)"/><ellipse cx="0" cy="-22" rx="13" ry="20" fill="#FFB13D" stroke="#E8891F" stroke-width="4" transform="rotate(144)"/><ellipse cx="0" cy="-22" rx="13" ry="20" fill="#FFB13D" stroke="#E8891F" stroke-width="4" transform="rotate(216)"/><ellipse cx="0" cy="-22" rx="13" ry="20" fill="#FFB13D" stroke="#E8891F" stroke-width="4" transform="rotate(288)"/><circle cx="0" cy="0" r="11" fill="#FFD24A" stroke="#E8A81F" stroke-width="4"/></g><g transform="translate(-160,420)"><ellipse cx="0" cy="0" rx="62" ry="20" fill="url(#woodG)" stroke="#7A5226" stroke-width="7"/><path d="M-44 12 L -52 96 M44 12 L 52 96 M0 18 L 0 100" stroke="#9C6B34" stroke-width="11" fill="none" stroke-linecap="round"/></g><g transform="translate(160,420)"><ellipse cx="0" cy="0" rx="62" ry="20" fill="url(#woodG)" stroke="#7A5226" stroke-width="7"/><path d="M-44 12 L -52 96 M44 12 L 52 96 M0 18 L 0 100" stroke="#9C6B34" stroke-width="11" fill="none" stroke-linecap="round"/></g></g><g transform="translate(-80,1120) scale(1.15)"><path d="M170 900 C 140 760 150 640 220 540" fill="none" stroke="#9C6B3F" stroke-width="52" stroke-linecap="round"/><path d="M170 900 C 140 760 150 640 220 540" fill="none" stroke="#B98350" stroke-width="30" stroke-linecap="round"/><path d="M220 540 C 130 470 30 470 -30 530 C 70 555 155 565 220 540 Z" fill="#3FAF4E"/><path d="M220 540 C 175 435 90 390 5 400 C 80 475 155 520 220 540 Z" fill="#3FAF4E"/><path d="M220 540 C 245 420 320 360 420 360 C 370 460 295 520 220 540 Z" fill="#3FAF4E"/><path d="M220 540 C 320 465 420 455 495 505 C 395 545 300 560 220 540 Z" fill="#3FAF4E"/><path d="M220 540 C 150 480 65 475 0 518 C 85 540 160 550 220 540 Z" fill="#57C862"/><path d="M220 540 C 255 440 325 390 405 385 C 360 465 295 515 220 540 Z" fill="#57C862"/><circle cx="200" cy="565" r="28" fill="#8A5A33"/><circle cx="248" cy="558" r="26" fill="#9C6B3F"/></g><g transform="translate(1020,2450)"><path d="M10.2 -40.8 L13.5 -11.3 L41.9 -2.9 L15.0 9.3 L15.7 38.9 L-4.3 17.1 L-32.2 27.0 L-17.6 1.2 L-35.6 -22.3 L-6.6 -16.4 Z" fill="#FF8A5C" stroke="#E56B3E" stroke-width="6" stroke-linejoin="round"/></g><g transform="translate(300,2560) scale(0.55)"><path d="M0 72 C -62 56 -80 -10 -54 -46 C -40 -64 -16 -74 0 -74 C 16 -74 40 -64 54 -46 C 80 -10 62 56 0 72 Z" fill="#F27AA8" stroke="#D6538A" stroke-width="8"/></g></svg>